<svg xmlns="http://www.w3.org/2000/svg" viewBox="0 0 600 400" fill="none">
  <rect width="600" height="400" fill="#f5f0f6"/>
  <rect x="150" y="80" width="300" height="280" rx="10" fill="white" stroke="#9d7ea7" stroke-width="3"/>
  <rect x="150" y="80" width="300" height="60" rx="10" fill="#9d7ea7"/>
  <rect x="150" y="80" width="300" height="10" rx="5" fill="#9d7ea7"/>
  <circle cx="200" cy="110" r="8" fill="white"/>
  <circle cx="240" cy="110" r="8" fill="white"/>
  <circle cx="280" cy="110" r="8" fill="white"/>
  <circle cx="320" cy="110" r="8" fill="white"/>
  <circle cx="360" cy="110" r="8" fill="white"/>
  <circle cx="400" cy="110" r="8" fill="white"/>
  <text x="170" y="175" font-family="Arial" font-size="18" font-weight="bold" fill="#666">SUN MON TUE WED THU FRI SAT</text>
  <g transform="translate(170, 190)">
    <text x="0" y="20" font-family="Arial" font-size="16" fill="#999">1</text>
    <text x="40" y="20" font-family="Arial" font-size="16" fill="#999">2</text>
    <text x="80" y="20" font-family="Arial" font-size="16" fill="#999">3</text>
    <text x="120" y="20" font-family="Arial" font-size="16" fill="#999">4</text>
    <text x="160" y="20" font-family="Arial" font-size="16" fill="#999">5</text>
    <text x="200" y="20" font-family="Arial" font-size="16" fill="#999">6</text>
    <text x="240" y="20" font-family="Arial" font-size="16" fill="#999">7</text>
  </g>
  <circle cx="330" cy="280" r="35" fill="#9d7ea7"/>
  <path d="M315 280 L328 293 L355 266" stroke="white" stroke-width="4" fill="none" stroke-linecap="round" stroke-linejoin="round"/>
</svg>
