<svg xmlns="http://www.w3.org/2000/svg" viewBox="0 0 600 400" fill="none">
  <rect width="600" height="400" fill="#f5f0f6"/>
  <rect x="150" y="120" width="140" height="180" rx="5" fill="#d2bed8" stroke="#9d7ea7" stroke-width="3"/>
  <rect x="160" y="140" width="120" height="20" fill="#9d7ea7"/>
  <circle cx="270" cy="150" r="6" fill="white"/>
  <circle cx="170" cy="180" r="15" fill="#e8dce9" stroke="#9d7ea7" stroke-width="2"/>
  <circle cx="220" cy="180" r="15" fill="#e8dce9" stroke="#9d7ea7" stroke-width="2"/>
  <circle cx="270" cy="180" r="15" fill="#e8dce9" stroke="#9d7ea7" stroke-width="2"/>
  <circle cx="170" cy="230" r="15" fill="#e8dce9" stroke="#9d7ea7" stroke-width="2"/>
  <circle cx="220" cy="230" r="15" fill="#e8dce9" stroke="#9d7ea7" stroke-width="2"/>
  <circle cx="270" cy="230" r="15" fill="#e8dce9" stroke="#9d7ea7" stroke-width="2"/>
  <rect x="310" y="120" width="140" height="180" rx="5" fill="#e8dce9" stroke="#9d7ea7" stroke-width="3"/>
  <rect x="320" y="140" width="120" height="20" fill="#9d7ea7"/>
  <circle cx="430" cy="150" r="6" fill="white"/>
  <circle cx="330" cy="180" r="15" fill="#d2bed8" stroke="#9d7ea7" stroke-width="2"/>
  <circle cx="380" cy="180" r="15" fill="#d2bed8" stroke="#9d7ea7" stroke-width="2"/>
  <circle cx="430" cy="180" r="15" fill="#d2bed8" stroke="#9d7ea7" stroke-width="2"/>
  <circle cx="330" cy="230" r="15" fill="#d2bed8" stroke="#9d7ea7" stroke-width="2"/>
  <circle cx="380" cy="230" r="15" fill="#d2bed8" stroke="#9d7ea7" stroke-width="2"/>
  <circle cx="430" cy="230" r="15" fill="#d2bed8" stroke="#9d7ea7" stroke-width="2"/>
</svg>
