<svg xmlns="http://www.w3.org/2000/svg" viewBox="0 0 600 400" fill="none">
  <rect width="600" height="400" fill="#f5f0f6"/>
  <ellipse cx="200" cy="150" rx="50" ry="55" fill="#e8dce9"/>
  <circle cx="200" cy="130" r="35" fill="#d2bed8" stroke="#9d7ea7" stroke-width="2"/>
  <ellipse cx="170" cy="250" rx="60" ry="100" fill="#9d7ea7"/>
  <ellipse cx="230" cy="250" rx="60" ry="100" fill="#9d7ea7"/>
  <rect x="150" y="200" width="100" height="150" fill="#e8dce9"/>
  <rect x="165" y="240" width="70" height="4" fill="#9d7ea7"/>
  <rect x="183" y="222" width="34" height="40" fill="#9d7ea7"/>
  <ellipse cx="400" cy="150" rx="50" ry="55" fill="#e8dce9"/>
  <circle cx="400" cy="130" r="35" fill="#d2bed8" stroke="#9d7ea7" stroke-width="2"/>
  <ellipse cx="370" cy="250" rx="60" ry="100" fill="#d2bed8"/>
  <ellipse cx="430" cy="250" rx="60" ry="100" fill="#d2bed8"/>
  <rect x="350" y="200" width="100" height="150" fill="white" stroke="#9d7ea7" stroke-width="2"/>
  <rect x="375" y="135" width="50" height="12" rx="6" fill="#9d7ea7"/>
  <rect x="391" y="123" width="18" height="36" rx="9" fill="#9d7ea7"/>
  <line x1="290" y1="160" x2="310" y2="160" stroke="#9d7ea7" stroke-width="3" stroke-linecap="round"/>
  <line x1="300" y1="150" x2="300" y2="170" stroke="#9d7ea7" stroke-width="3" stroke-linecap="round"/>
</svg>
